# Blender v3.0.1 OBJ File: 'CR2.blend'
# www.blender.org
mtllib CR2.mtl
o heater-2
v 0.756508 0.150000 -4.242376
v -0.763492 0.150000 -4.082377
v -0.763492 0.150000 -4.242376
v 0.756508 0.150000 -4.082377
v 0.756508 0.150000 -4.242376
v 0.756508 0.595000 -4.082377
v 0.756508 0.150000 -4.082377
v 0.756508 0.595000 -4.242376
v 0.756508 0.595000 -4.082377
v -0.763492 0.150000 -4.082377
v 0.756508 0.150000 -4.082377
v -0.763492 0.595000 -4.082377
v -0.763492 0.595000 -4.242376
v -0.763492 0.150000 -4.082377
v -0.763492 0.595000 -4.082377
v -0.763492 0.150000 -4.242376
v -0.763492 0.595000 -4.242376
v 0.756508 0.150000 -4.242376
v -0.763492 0.150000 -4.242376
v 0.756508 0.595000 -4.242376
v 0.756508 0.595000 -4.082377
v -0.763492 0.595000 -4.242376
v -0.763492 0.595000 -4.082377
v 0.756508 0.595000 -4.242376
vn 0.0000 -1.0000 0.0000
vn 1.0000 0.0000 0.0000
vn 0.0000 0.0000 1.0000
vn -1.0000 0.0000 0.0000
vn 0.0000 0.0000 -1.0000
vn 0.0000 1.0000 0.0000
usemtl mat_CR2_concrete
s off
f 1//1 2//1 3//1
f 2//1 1//1 4//1
f 5//2 6//2 7//2
f 6//2 5//2 8//2
f 9//3 10//3 11//3
f 10//3 9//3 12//3
f 13//4 14//4 15//4
f 14//4 13//4 16//4
f 17//5 18//5 19//5
f 18//5 17//5 20//5
f 21//6 22//6 23//6
f 22//6 21//6 24//6
